<?xml version="1.0" encoding="utf-8"?>
<!-- Generator: Adobe Illustrator 22.0.0, SVG Export Plug-In . SVG Version: 6.00 Build 0)  -->
<svg version="1.1" id="Livello_1" xmlns="http://www.w3.org/2000/svg" xmlns:xlink="http://www.w3.org/1999/xlink" x="0px" y="0px"
	 viewBox="0 0 151.5 112.9" style="enable-background:new 0 0 151.5 112.9;" xml:space="preserve">
<style type="text/css">
	.st0{fill:#FFFFFF;}
</style>
<path class="st0" d="M218-276.5H83.5l40.9-41.6c2.9-3.1,2.8-8-0.3-10.9h0l-53.6,56.5l53.6,56.4l4.6-4.2L83-268.5h135
	c2.2,0,4-1.8,4-4l0,0C222-274.7,220.2-276.5,218-276.5z"/>
<path class="st0" d="M144.6,51.9H17.9L56.7,8c1.6-1.8,1.4-4.6-0.4-6.2c-1.8-1.6-4.6-1.4-6.2,0.4L2.4,56.3l47.8,54.4
	c0.8,0.9,2,1.5,3.3,1.5c1.1,0,2.1-0.4,2.9-1.1c1.8-1.6,2-4.4,0.4-6.2L17.9,60.7h126.7c2.4,0,4.3-2,4.3-4.4
	C149,53.9,147,51.9,144.6,51.9z"/>
</svg>
