<svg id="Livello_1" data-name="Livello 1" xmlns="http://www.w3.org/2000/svg" viewBox="0 0 88.66 172.58"><defs><style>.cls-1{fill:#fff;}</style></defs><title>Tavola disegno 1</title><path class="cls-1" d="M76,172.58H12.68A12.69,12.69,0,0,1,0,159.91V12.68A12.69,12.69,0,0,1,12.68,0H76A12.69,12.69,0,0,1,88.66,12.68V159.91A12.69,12.69,0,0,1,76,172.58ZM12.68,1.27a11.42,11.42,0,0,0-11.4,11.4V159.91a11.42,11.42,0,0,0,11.4,11.4H76a11.42,11.42,0,0,0,11.4-11.4V12.68A11.42,11.42,0,0,0,76,1.27ZM44.33,167.74a7,7,0,1,1,7-7A7,7,0,0,1,44.33,167.74Zm0-12.77a5.75,5.75,0,1,0,5.75,5.75A5.76,5.76,0,0,0,44.33,155Zm40.2-4H4.13V21.69H84.53ZM5.4,149.74H83.26V23H5.4Z"/></svg>